# xmcd
#
# Track frame offsets:
#	150
#	20052
#	35096
#	54891
#	69318
#	82774
#	100641
#	113216
#	130041
#	151153
#	167991
#	194266
#	209541
#	225360
#
# Disc length: 3607
#
# Revision: 2
# Processed by: cddbd v1.5.2PL0 Copyright (c) Steve Scherf et al.
# Submitted via: Broken X Disk Manager 4.02.2262
#
DISCID=ab0e150e
DTITLE=Markovic, Boban Orkestar - Boban I Marko
DYEAR=2004
DGENRE=Folklore
TTITLE0=Balkan Fest
TTITLE1=Southern Comfort
TTITLE2=Sat
TTITLE3=Mundo Cocek
TTITLE4=Od Srca
TTITLE5=Povratak U Han
TTITLE6=Sanja Samba
TTITLE7=Mere Yaara Dildara
TTITLE8=Magija
TTITLE9=Bugarcica
TTITLE10=Boban I Marko
TTITLE11=Bratski Cocek
TTITLE12=Biseri Srbije Part 1
TTITLE13=Biseri Srbije Part 2
EXTD=
EXTT0=
EXTT1=
EXTT2=
EXTT3=
EXTT4=
EXTT5=
EXTT6=
EXTT7=
EXTT8=
EXTT9=
EXTT10=
EXTT11=
EXTT12=
EXTT13=
PLAYORDER=
